<?xml version="1.0" encoding="utf-8" standalone="no"?>
<!DOCTYPE svg PUBLIC "-//W3C//DTD SVG 1.1//EN"
  "http://www.w3.org/Graphics/SVG/1.1/DTD/svg11.dtd">
<!-- Created with matplotlib (https://matplotlib.org/) -->
<svg height="345.6pt" version="1.1" viewBox="0 0 460.8 345.6" width="460.8pt" xmlns="http://www.w3.org/2000/svg" xmlns:xlink="http://www.w3.org/1999/xlink">
 <defs>
  <style type="text/css">
*{stroke-linecap:butt;stroke-linejoin:round;}
  </style>
 </defs>
 <g id="figure_1">
  <g id="patch_1">
   <path d="M 0 345.6 
L 460.8 345.6 
L 460.8 0 
L 0 0 
z
" style="fill:#ffffff;"/>
  </g>
  <g id="axes_1">
   <g id="patch_2">
    <path d="M 57.6 252.037968 
L 414.72 252.037968 
L 414.72 97.018032 
L 57.6 97.018032 
z
" style="fill:#ffffff;"/>
   </g>
   <g id="matplotlib.axis_1">
    <g id="xtick_1">
     <g id="line2d_1">
      <defs>
       <path d="M 0 0 
L 0 3.5 
" id="m78361b7565" style="stroke:#000000;stroke-width:0.8;"/>
      </defs>
      <g>
       <use style="stroke:#000000;stroke-width:0.8;" x="80.792096" xlink:href="#m78361b7565" y="252.037968"/>
      </g>
     </g>
     <g id="text_1">
      <!-- 400 -->
      <defs>
       <path d="M 37.796875 64.3125 
L 12.890625 25.390625 
L 37.796875 25.390625 
z
M 35.203125 72.90625 
L 47.609375 72.90625 
L 47.609375 25.390625 
L 58.015625 25.390625 
L 58.015625 17.1875 
L 47.609375 17.1875 
L 47.609375 0 
L 37.796875 0 
L 37.796875 17.1875 
L 4.890625 17.1875 
L 4.890625 26.703125 
z
" id="DejaVuSans-52"/>
       <path d="M 31.78125 66.40625 
Q 24.171875 66.40625 20.328125 58.90625 
Q 16.5 51.421875 16.5 36.375 
Q 16.5 21.390625 20.328125 13.890625 
Q 24.171875 6.390625 31.78125 6.390625 
Q 39.453125 6.390625 43.28125 13.890625 
Q 47.125 21.390625 47.125 36.375 
Q 47.125 51.421875 43.28125 58.90625 
Q 39.453125 66.40625 31.78125 66.40625 
z
M 31.78125 74.21875 
Q 44.046875 74.21875 50.515625 64.515625 
Q 56.984375 54.828125 56.984375 36.375 
Q 56.984375 17.96875 50.515625 8.265625 
Q 44.046875 -1.421875 31.78125 -1.421875 
Q 19.53125 -1.421875 13.0625 8.265625 
Q 6.59375 17.96875 6.59375 36.375 
Q 6.59375 54.828125 13.0625 64.515625 
Q 19.53125 74.21875 31.78125 74.21875 
z
" id="DejaVuSans-48"/>
      </defs>
      <g transform="translate(71.248346 266.636405)scale(0.1 -0.1)">
       <use xlink:href="#DejaVuSans-52"/>
       <use x="63.623047" xlink:href="#DejaVuSans-48"/>
       <use x="127.246094" xlink:href="#DejaVuSans-48"/>
      </g>
     </g>
    </g>
    <g id="xtick_2">
     <g id="line2d_2">
      <g>
       <use style="stroke:#000000;stroke-width:0.8;" x="150.385782" xlink:href="#m78361b7565" y="252.037968"/>
      </g>
     </g>
     <g id="text_2">
      <!-- 600 -->
      <defs>
       <path d="M 33.015625 40.375 
Q 26.375 40.375 22.484375 35.828125 
Q 18.609375 31.296875 18.609375 23.390625 
Q 18.609375 15.53125 22.484375 10.953125 
Q 26.375 6.390625 33.015625 6.390625 
Q 39.65625 6.390625 43.53125 10.953125 
Q 47.40625 15.53125 47.40625 23.390625 
Q 47.40625 31.296875 43.53125 35.828125 
Q 39.65625 40.375 33.015625 40.375 
z
M 52.59375 71.296875 
L 52.59375 62.3125 
Q 48.875 64.0625 45.09375 64.984375 
Q 41.3125 65.921875 37.59375 65.921875 
Q 27.828125 65.921875 22.671875 59.328125 
Q 17.53125 52.734375 16.796875 39.40625 
Q 19.671875 43.65625 24.015625 45.921875 
Q 28.375 48.1875 33.59375 48.1875 
Q 44.578125 48.1875 50.953125 41.515625 
Q 57.328125 34.859375 57.328125 23.390625 
Q 57.328125 12.15625 50.6875 5.359375 
Q 44.046875 -1.421875 33.015625 -1.421875 
Q 20.359375 -1.421875 13.671875 8.265625 
Q 6.984375 17.96875 6.984375 36.375 
Q 6.984375 53.65625 15.1875 63.9375 
Q 23.390625 74.21875 37.203125 74.21875 
Q 40.921875 74.21875 44.703125 73.484375 
Q 48.484375 72.75 52.59375 71.296875 
z
" id="DejaVuSans-54"/>
      </defs>
      <g transform="translate(140.842032 266.636405)scale(0.1 -0.1)">
       <use xlink:href="#DejaVuSans-54"/>
       <use x="63.623047" xlink:href="#DejaVuSans-48"/>
       <use x="127.246094" xlink:href="#DejaVuSans-48"/>
      </g>
     </g>
    </g>
    <g id="xtick_3">
     <g id="line2d_3">
      <g>
       <use style="stroke:#000000;stroke-width:0.8;" x="219.979468" xlink:href="#m78361b7565" y="252.037968"/>
      </g>
     </g>
     <g id="text_3">
      <!-- 800 -->
      <defs>
       <path d="M 31.78125 34.625 
Q 24.75 34.625 20.71875 30.859375 
Q 16.703125 27.09375 16.703125 20.515625 
Q 16.703125 13.921875 20.71875 10.15625 
Q 24.75 6.390625 31.78125 6.390625 
Q 38.8125 6.390625 42.859375 10.171875 
Q 46.921875 13.96875 46.921875 20.515625 
Q 46.921875 27.09375 42.890625 30.859375 
Q 38.875 34.625 31.78125 34.625 
z
M 21.921875 38.8125 
Q 15.578125 40.375 12.03125 44.71875 
Q 8.5 49.078125 8.5 55.328125 
Q 8.5 64.0625 14.71875 69.140625 
Q 20.953125 74.21875 31.78125 74.21875 
Q 42.671875 74.21875 48.875 69.140625 
Q 55.078125 64.0625 55.078125 55.328125 
Q 55.078125 49.078125 51.53125 44.71875 
Q 48 40.375 41.703125 38.8125 
Q 48.828125 37.15625 52.796875 32.3125 
Q 56.78125 27.484375 56.78125 20.515625 
Q 56.78125 9.90625 50.3125 4.234375 
Q 43.84375 -1.421875 31.78125 -1.421875 
Q 19.734375 -1.421875 13.25 4.234375 
Q 6.78125 9.90625 6.78125 20.515625 
Q 6.78125 27.484375 10.78125 32.3125 
Q 14.796875 37.15625 21.921875 38.8125 
z
M 18.3125 54.390625 
Q 18.3125 48.734375 21.84375 45.5625 
Q 25.390625 42.390625 31.78125 42.390625 
Q 38.140625 42.390625 41.71875 45.5625 
Q 45.3125 48.734375 45.3125 54.390625 
Q 45.3125 60.0625 41.71875 63.234375 
Q 38.140625 66.40625 31.78125 66.40625 
Q 25.390625 66.40625 21.84375 63.234375 
Q 18.3125 60.0625 18.3125 54.390625 
z
" id="DejaVuSans-56"/>
      </defs>
      <g transform="translate(210.435718 266.636405)scale(0.1 -0.1)">
       <use xlink:href="#DejaVuSans-56"/>
       <use x="63.623047" xlink:href="#DejaVuSans-48"/>
       <use x="127.246094" xlink:href="#DejaVuSans-48"/>
      </g>
     </g>
    </g>
    <g id="xtick_4">
     <g id="line2d_4">
      <g>
       <use style="stroke:#000000;stroke-width:0.8;" x="289.573154" xlink:href="#m78361b7565" y="252.037968"/>
      </g>
     </g>
     <g id="text_4">
      <!-- 1000 -->
      <defs>
       <path d="M 12.40625 8.296875 
L 28.515625 8.296875 
L 28.515625 63.921875 
L 10.984375 60.40625 
L 10.984375 69.390625 
L 28.421875 72.90625 
L 38.28125 72.90625 
L 38.28125 8.296875 
L 54.390625 8.296875 
L 54.390625 0 
L 12.40625 0 
z
" id="DejaVuSans-49"/>
      </defs>
      <g transform="translate(276.848154 266.636405)scale(0.1 -0.1)">
       <use xlink:href="#DejaVuSans-49"/>
       <use x="63.623047" xlink:href="#DejaVuSans-48"/>
       <use x="127.246094" xlink:href="#DejaVuSans-48"/>
       <use x="190.869141" xlink:href="#DejaVuSans-48"/>
      </g>
     </g>
    </g>
    <g id="xtick_5">
     <g id="line2d_5">
      <g>
       <use style="stroke:#000000;stroke-width:0.8;" x="359.16684" xlink:href="#m78361b7565" y="252.037968"/>
      </g>
     </g>
     <g id="text_5">
      <!-- 1200 -->
      <defs>
       <path d="M 19.1875 8.296875 
L 53.609375 8.296875 
L 53.609375 0 
L 7.328125 0 
L 7.328125 8.296875 
Q 12.9375 14.109375 22.625 23.890625 
Q 32.328125 33.6875 34.8125 36.53125 
Q 39.546875 41.84375 41.421875 45.53125 
Q 43.3125 49.21875 43.3125 52.78125 
Q 43.3125 58.59375 39.234375 62.25 
Q 35.15625 65.921875 28.609375 65.921875 
Q 23.96875 65.921875 18.8125 64.3125 
Q 13.671875 62.703125 7.8125 59.421875 
L 7.8125 69.390625 
Q 13.765625 71.78125 18.9375 73 
Q 24.125 74.21875 28.421875 74.21875 
Q 39.75 74.21875 46.484375 68.546875 
Q 53.21875 62.890625 53.21875 53.421875 
Q 53.21875 48.921875 51.53125 44.890625 
Q 49.859375 40.875 45.40625 35.40625 
Q 44.1875 33.984375 37.640625 27.21875 
Q 31.109375 20.453125 19.1875 8.296875 
z
" id="DejaVuSans-50"/>
      </defs>
      <g transform="translate(346.44184 266.636405)scale(0.1 -0.1)">
       <use xlink:href="#DejaVuSans-49"/>
       <use x="63.623047" xlink:href="#DejaVuSans-50"/>
       <use x="127.246094" xlink:href="#DejaVuSans-48"/>
       <use x="190.869141" xlink:href="#DejaVuSans-48"/>
      </g>
     </g>
    </g>
   </g>
   <g id="matplotlib.axis_2">
    <g id="ytick_1">
     <g id="line2d_6">
      <defs>
       <path d="M 0 0 
L -3.5 0 
" id="m526708e3bc" style="stroke:#000000;stroke-width:0.8;"/>
      </defs>
      <g>
       <use style="stroke:#000000;stroke-width:0.8;" x="57.6" xlink:href="#m526708e3bc" y="244.991607"/>
      </g>
     </g>
     <g id="text_6">
      <!-- 0 -->
      <g transform="translate(44.2375 248.790826)scale(0.1 -0.1)">
       <use xlink:href="#DejaVuSans-48"/>
      </g>
     </g>
    </g>
    <g id="ytick_2">
     <g id="line2d_7">
      <g>
       <use style="stroke:#000000;stroke-width:0.8;" x="57.6" xlink:href="#m526708e3bc" y="210.194764"/>
      </g>
     </g>
     <g id="text_7">
      <!-- 100 -->
      <g transform="translate(31.5125 213.993983)scale(0.1 -0.1)">
       <use xlink:href="#DejaVuSans-49"/>
       <use x="63.623047" xlink:href="#DejaVuSans-48"/>
       <use x="127.246094" xlink:href="#DejaVuSans-48"/>
      </g>
     </g>
    </g>
    <g id="ytick_3">
     <g id="line2d_8">
      <g>
       <use style="stroke:#000000;stroke-width:0.8;" x="57.6" xlink:href="#m526708e3bc" y="175.397921"/>
      </g>
     </g>
     <g id="text_8">
      <!-- 200 -->
      <g transform="translate(31.5125 179.19714)scale(0.1 -0.1)">
       <use xlink:href="#DejaVuSans-50"/>
       <use x="63.623047" xlink:href="#DejaVuSans-48"/>
       <use x="127.246094" xlink:href="#DejaVuSans-48"/>
      </g>
     </g>
    </g>
    <g id="ytick_4">
     <g id="line2d_9">
      <g>
       <use style="stroke:#000000;stroke-width:0.8;" x="57.6" xlink:href="#m526708e3bc" y="140.601078"/>
      </g>
     </g>
     <g id="text_9">
      <!-- 300 -->
      <defs>
       <path d="M 40.578125 39.3125 
Q 47.65625 37.796875 51.625 33 
Q 55.609375 28.21875 55.609375 21.1875 
Q 55.609375 10.40625 48.1875 4.484375 
Q 40.765625 -1.421875 27.09375 -1.421875 
Q 22.515625 -1.421875 17.65625 -0.515625 
Q 12.796875 0.390625 7.625 2.203125 
L 7.625 11.71875 
Q 11.71875 9.328125 16.59375 8.109375 
Q 21.484375 6.890625 26.8125 6.890625 
Q 36.078125 6.890625 40.9375 10.546875 
Q 45.796875 14.203125 45.796875 21.1875 
Q 45.796875 27.640625 41.28125 31.265625 
Q 36.765625 34.90625 28.71875 34.90625 
L 20.21875 34.90625 
L 20.21875 43.015625 
L 29.109375 43.015625 
Q 36.375 43.015625 40.234375 45.921875 
Q 44.09375 48.828125 44.09375 54.296875 
Q 44.09375 59.90625 40.109375 62.90625 
Q 36.140625 65.921875 28.71875 65.921875 
Q 24.65625 65.921875 20.015625 65.03125 
Q 15.375 64.15625 9.8125 62.3125 
L 9.8125 71.09375 
Q 15.4375 72.65625 20.34375 73.4375 
Q 25.25 74.21875 29.59375 74.21875 
Q 40.828125 74.21875 47.359375 69.109375 
Q 53.90625 64.015625 53.90625 55.328125 
Q 53.90625 49.265625 50.4375 45.09375 
Q 46.96875 40.921875 40.578125 39.3125 
z
" id="DejaVuSans-51"/>
      </defs>
      <g transform="translate(31.5125 144.400297)scale(0.1 -0.1)">
       <use xlink:href="#DejaVuSans-51"/>
       <use x="63.623047" xlink:href="#DejaVuSans-48"/>
       <use x="127.246094" xlink:href="#DejaVuSans-48"/>
      </g>
     </g>
    </g>
    <g id="ytick_5">
     <g id="line2d_10">
      <g>
       <use style="stroke:#000000;stroke-width:0.8;" x="57.6" xlink:href="#m526708e3bc" y="105.804235"/>
      </g>
     </g>
     <g id="text_10">
      <!-- 400 -->
      <g transform="translate(31.5125 109.603454)scale(0.1 -0.1)">
       <use xlink:href="#DejaVuSans-52"/>
       <use x="63.623047" xlink:href="#DejaVuSans-48"/>
       <use x="127.246094" xlink:href="#DejaVuSans-48"/>
      </g>
     </g>
    </g>
   </g>
   <g id="line2d_11">
    <path clip-path="url(#pd6f1166d60)" d="M 224.851026 237.336302 
L 226.590868 227.941154 
L 227.286805 226.54928 
L 228.33071 225.505375 
L 229.374616 226.54928 
L 231.114458 226.54928 
L 232.8543 224.809438 
L 233.898205 226.201312 
L 234.94211 228.289122 
L 236.681953 228.985059 
L 238.421795 227.941154 
L 240.509605 228.637091 
L 241.553511 239.772081 
L 244.685227 230.724901 
L 246.425069 230.028965 
L 248.512879 229.680996 
L 249.556785 231.07287 
L 250.948658 233.160681 
L 253.036469 232.464744 
L 255.124279 231.768807 
L 256.168185 232.464744 
L 246.425069 241.859891 
L 259.995837 231.420838 
L 261.387711 230.724901 
L 263.475522 232.812712 
L 264.867395 233.856617 
L 265.911301 233.508649 
L 267.303175 232.464744 
L 258.255995 232.116775 
L 270.43489 232.812712 
L 272.870669 233.160681 
L 274.262543 234.204586 
L 276.350354 232.116775 
L 277.742227 230.376933 
L 279.830038 231.768807 
L 282.265817 232.116775 
L 284.701596 232.116775 
L 287.137375 231.420838 
L 289.225186 231.420838 
L 291.660965 232.464744 
L 294.096744 233.160681 
L 297.22846 233.508649 
L 299.31627 232.812712 
L 300.708144 233.508649 
L 302.100018 234.900523 
L 303.83986 234.900523 
L 305.231733 234.552554 
L 306.971576 233.508649 
L 308.363449 233.508649 
L 309.755323 233.856617 
L 311.495165 233.508649 
L 312.887039 233.508649 
L 303.491891 232.812712 
L 315.670786 232.812712 
L 317.06266 232.464744 
L 318.454534 232.812712 
L 320.194376 232.812712 
L 321.934218 233.160681 
L 324.022029 233.160681 
L 325.413902 232.116775 
L 316.714692 231.420838 
L 329.241555 232.464744 
L 330.633429 232.464744 
L 332.373271 232.464744 
L 333.417176 231.768807 
L 335.504987 232.116775 
L 326.109839 241.859891 
L 338.288734 232.812712 
L 328.545618 241.511923 
L 329.937492 241.163954 
L 342.812324 231.768807 
L 344.900134 232.116775 
L 346.639977 233.160681 
L 337.244829 243.599733 
L 349.423724 234.552554 
L 350.815598 233.856617 
L 352.903408 233.508649 
L 353.947314 233.856617 
L 355.339187 233.508649 
L 357.07903 233.856617 
L 358.818872 234.900523 
L 350.119661 235.248491 
L 362.646524 235.59646 
L 363.69043 235.248491 
L 365.082303 234.900523 
L 366.822146 234.552554 
L 368.909956 234.900523 
L 370.649798 235.59646 
L 372.38964 236.292396 
L 362.298556 244.991607 
L 373.433546 235.248491 
L 373.433546 234.900523 
L 373.433546 234.900523 
L 373.433546 233.856617 
L 373.433546 233.856617 
L 373.433546 234.552554 
L 373.433546 234.552554 
L 373.433546 233.508649 
L 373.433546 233.508649 
L 365.77824 242.903797 
" style="fill:none;stroke:#1f77b4;stroke-linecap:square;stroke-width:1.5;"/>
   </g>
   <g id="line2d_12">
    <path clip-path="url(#pd6f1166d60)" d="M 226.2429 231.07287 
L 226.590868 230.028965 
L 227.286805 228.637091 
L 228.33071 227.593186 
L 229.722584 226.897249 
L 231.114458 226.54928 
L 232.506331 226.897249 
L 233.898205 227.245217 
L 235.290079 227.941154 
L 236.681953 228.985059 
L 238.421795 230.028965 
L 240.161637 231.07287 
L 242.249448 231.768807 
L 243.98929 231.768807 
L 246.0771 231.768807 
L 247.816942 231.768807 
L 249.556785 231.768807 
L 250.948658 232.116775 
L 251.992564 232.812712 
L 253.036469 233.508649 
L 254.080374 233.856617 
L 255.472248 234.204586 
L 257.560058 233.856617 
L 259.647869 233.508649 
L 261.73568 233.160681 
L 263.475522 233.160681 
L 264.519427 233.160681 
L 265.563332 233.160681 
L 266.955206 233.160681 
L 268.695048 233.160681 
L 271.130827 232.812712 
L 273.566606 232.812712 
L 275.654417 232.464744 
L 278.090196 232.116775 
L 280.178006 232.116775 
L 282.265817 232.116775 
L 284.701596 232.116775 
L 286.789407 232.116775 
L 289.225186 232.464744 
L 291.660965 232.464744 
L 294.096744 232.812712 
L 296.184554 233.160681 
L 298.272365 233.508649 
L 300.360175 233.856617 
L 302.100018 234.204586 
L 303.491891 234.204586 
L 305.231733 234.204586 
L 306.623607 234.204586 
L 308.015481 233.856617 
L 309.059386 233.856617 
L 309.755323 233.508649 
L 310.799228 233.508649 
L 311.843134 233.160681 
L 313.582976 233.160681 
L 315.670786 233.160681 
L 317.758597 232.812712 
L 319.498439 232.812712 
L 321.238281 232.812712 
L 322.282186 232.812712 
L 323.326092 232.464744 
L 325.065934 232.464744 
L 326.805776 232.464744 
L 328.893587 232.812712 
L 330.633429 233.160681 
L 331.677334 233.856617 
L 332.025303 234.900523 
L 332.373271 235.944428 
L 332.721239 236.988333 
L 334.113113 236.988333 
L 336.200924 236.640365 
L 338.636703 236.292396 
L 341.072482 235.944428 
L 343.160292 235.944428 
L 345.248103 235.944428 
L 347.335913 235.59646 
L 349.423724 235.248491 
L 351.511535 234.552554 
L 353.251377 234.204586 
L 354.643251 234.204586 
L 355.687156 234.552554 
L 356.731061 234.900523 
L 358.122935 234.900523 
L 360.210745 235.248491 
L 362.298556 235.248491 
L 364.386367 235.248491 
L 366.126209 235.59646 
L 367.518082 235.944428 
L 368.561988 236.640365 
L 369.257925 237.336302 
L 369.953861 237.336302 
L 370.649798 236.988333 
L 371.693704 236.292396 
L 372.38964 235.59646 
L 373.085577 234.900523 
L 373.085577 234.552554 
L 373.085577 234.552554 
L 372.38964 234.900523 
L 371.693704 235.944428 
L 370.997767 236.640365 
L 370.30183 237.336302 
" style="fill:none;stroke:#ff7f0e;stroke-linecap:square;stroke-width:1.5;"/>
   </g>
   <g id="line2d_13">
    <path clip-path="url(#pd6f1166d60)" d="M 229.374616 244.991607 
L 241.901479 236.988333 
L 242.597416 236.988333 
L 243.293353 236.292396 
L 244.337258 236.292396 
L 244.685227 233.508649 
L 234.94211 234.204586 
L 246.773037 233.508649 
L 248.164911 233.508649 
L 249.556785 232.812712 
L 240.161637 239.772081 
L 252.6885 231.07287 
L 243.293353 237.68427 
L 256.168185 228.985059 
L 246.425069 235.248491 
L 259.647869 227.245217 
L 250.252721 226.201312 
L 251.296627 224.113501 
L 262.779585 226.897249 
L 263.82349 225.853343 
L 253.384437 232.812712 
L 265.911301 225.157407 
L 266.259269 233.856617 
L 268.34708 222.025691 
L 269.738954 222.721628 
L 271.130827 222.721628 
L 272.870669 223.765533 
L 274.262543 223.069596 
L 274.95848 232.116775 
L 276.698322 222.721628 
L 266.607238 230.376933 
L 268.695048 219.93788 
L 280.873943 219.93788 
L 282.961754 219.93788 
L 274.95848 217.85007 
L 277.046291 217.502101 
L 278.786133 225.505375 
L 281.56988 225.505375 
L 283.657691 214.718354 
L 285.397533 225.505375 
L 286.789407 224.809438 
L 298.968302 223.417564 
L 301.056112 216.806164 
L 291.312996 214.022417 
L 292.008933 222.373659 
L 294.096744 213.674448 
L 306.275639 212.978512 
L 307.667512 214.718354 
L 309.407355 213.32648 
L 300.708144 211.586638 
L 313.582976 212.282575 
L 315.322818 211.586638 
L 306.971576 209.150859 
L 308.711418 207.411017 
L 321.58625 208.454922 
L 323.326092 207.411017 
L 314.974849 204.627269 
L 317.06266 204.279301 
L 319.150471 203.235395 
L 319.846407 202.539459 
L 321.238281 203.931332 
L 322.630155 210.542733 
L 334.80905 202.539459 
L 337.592797 204.627269 
L 328.893587 210.890701 
L 342.812324 202.539459 
L 344.900134 202.539459 
L 336.548892 200.451648 
L 350.467629 201.147585 
L 353.599345 199.407743 
L 355.687156 198.711806 
L 358.122935 198.363837 
L 359.862777 197.319932 
L 350.815598 193.144311 
L 362.994493 195.928058 
L 364.038398 194.884153 
L 364.734335 203.931332 
L 355.339187 202.887427 
L 357.774966 191.752437 
L 359.514809 193.144311 
L 360.906682 192.448374 
L 362.646524 191.0565 
L 375.521356 193.492279 
L 367.170114 189.664627 
L 380.392914 191.404469 
L 382.828693 190.012595 
L 384.916504 189.664627 
L 387.004315 191.404469 
L 388.744157 188.272753 
L 390.483999 196.623995 
L 392.571809 186.532911 
L 382.828693 184.097132 
L 383.872599 184.4451 
L 384.916504 192.796343 
L 384.568536 183.749163 
L 395.703525 186.184942 
L 396.747431 185.489006 
L 387.004315 183.749163 
L 398.487273 184.4451 
L 393.615715 176.789795 
" style="fill:none;stroke:#2ca02c;stroke-linecap:square;stroke-width:1.5;"/>
   </g>
   <g id="line2d_14">
    <path clip-path="url(#pd6f1166d60)" d="M 237.37789 240.120049 
L 238.421795 239.424112 
L 240.161637 238.032239 
L 241.553511 236.988333 
L 242.249448 235.944428 
L 242.945384 235.248491 
L 243.293353 234.552554 
L 244.337258 234.552554 
L 245.381163 234.552554 
L 246.0771 234.552554 
L 246.773037 234.552554 
L 247.816942 234.204586 
L 248.860848 233.508649 
L 250.252721 232.464744 
L 251.644595 230.724901 
L 253.036469 229.333028 
L 254.428343 227.941154 
L 255.820216 227.245217 
L 257.560058 227.245217 
L 259.647869 227.593186 
L 261.387711 227.941154 
L 263.475522 227.941154 
L 265.563332 226.897249 
L 267.303175 225.853343 
L 269.390985 225.157407 
L 270.782859 224.46147 
L 271.826764 224.809438 
L 272.870669 225.157407 
L 273.218638 225.505375 
L 273.218638 225.505375 
L 273.566606 224.46147 
L 274.262543 223.069596 
L 275.654417 221.677722 
L 277.046291 220.633817 
L 278.090196 220.633817 
L 278.786133 220.981785 
L 280.178006 221.329754 
L 281.917849 222.025691 
L 284.005659 222.025691 
L 286.789407 222.025691 
L 289.573154 221.677722 
L 292.356901 220.981785 
L 294.096744 219.589912 
L 295.140649 218.198038 
L 296.880491 217.154133 
L 298.968302 215.762259 
L 301.404081 215.066322 
L 304.187828 214.022417 
L 306.275639 213.32648 
L 308.015481 212.630543 
L 309.407355 211.586638 
L 310.799228 210.890701 
L 312.191102 209.846796 
L 313.930944 208.80289 
L 315.670786 207.758985 
L 317.06266 206.71508 
L 317.758597 205.671175 
L 318.454534 204.975238 
L 319.498439 204.627269 
L 321.238281 204.627269 
L 323.67406 204.975238 
L 326.457808 205.323206 
L 329.937492 205.671175 
L 333.069208 205.671175 
L 335.852955 204.975238 
L 338.636703 204.279301 
L 341.768419 202.887427 
L 344.552166 201.843522 
L 348.03185 200.799616 
L 351.163566 199.755711 
L 353.599345 199.059774 
L 355.687156 198.015869 
L 357.07903 197.319932 
L 358.470903 196.971964 
L 359.514809 196.971964 
L 360.210745 197.667901 
L 360.210745 197.667901 
L 359.862777 197.319932 
L 360.210745 195.928058 
L 361.254651 194.536185 
L 362.994493 193.492279 
L 366.126209 192.448374 
L 369.605893 191.752437 
L 373.433546 191.404469 
L 377.261198 191.0565 
L 380.740883 190.708532 
L 383.52463 190.708532 
L 385.612441 190.708532 
L 387.004315 190.360564 
L 387.700251 189.664627 
L 387.352283 188.620721 
L 387.004315 187.924785 
L 386.656346 187.228848 
L 387.352283 186.880879 
L 388.744157 186.532911 
L 390.483999 185.836974 
L 391.875873 184.793069 
L 392.919778 183.749163 
L 393.615715 182.35729 
L 393.963683 181.661353 
" style="fill:none;stroke:#d62728;stroke-linecap:square;stroke-width:1.5;"/>
   </g>
   <g id="line2d_15">
    <path clip-path="url(#pd6f1166d60)" d="M 252.340532 244.991607 
L 252.6885 244.643639 
L 252.6885 244.643639 
L 253.036469 244.29567 
L 254.080374 244.29567 
L 254.080374 242.555828 
L 254.428343 243.599733 
L 254.776311 243.599733 
L 255.820216 242.20786 
L 246.0771 241.859891 
L 247.816942 240.815986 
L 259.647869 238.380207 
L 260.691774 237.336302 
L 261.387711 236.640365 
L 262.431616 235.944428 
L 252.6885 235.248491 
L 264.519427 232.464744 
L 255.472248 231.07287 
L 267.999111 229.333028 
L 269.738954 228.289122 
L 260.343806 226.897249 
L 261.73568 224.809438 
L 274.262543 224.113501 
L 275.306448 223.417564 
L 276.350354 221.677722 
L 277.742227 221.329754 
L 279.134101 220.633817 
L 280.178006 219.589912 
L 280.525975 218.546006 
L 280.525975 218.198038 
L 281.221912 217.502101 
L 281.917849 216.458196 
L 282.961754 215.762259 
L 284.353628 214.718354 
L 285.745501 213.674448 
L 287.137375 212.978512 
L 288.529249 210.542733 
L 279.830038 209.498827 
L 292.008933 209.150859 
L 282.265817 207.758985 
L 283.657691 207.063048 
L 284.701596 205.671175 
L 286.441438 204.279301 
L 298.968302 204.975238 
L 290.269091 203.583364 
L 291.660965 199.755711 
L 293.748775 208.106954 
L 295.140649 208.454922 
L 296.880491 205.323206 
L 309.407355 202.539459 
L 299.664239 203.235395 
L 301.404081 203.931332 
L 303.143923 200.799616 
L 304.535797 201.147585 
L 305.92767 200.451648 
L 318.454534 199.755711 
L 308.363449 199.755711 
L 320.542344 199.755711 
L 310.799228 200.10368 
L 311.843134 198.363837 
L 312.53907 198.363837 
L 313.582976 198.015869 
L 325.761871 195.928058 
L 327.849681 193.840248 
L 318.802502 191.404469 
L 331.677334 191.0565 
L 321.934218 188.620721 
L 323.326092 187.228848 
L 335.852955 186.184942 
L 337.940766 184.097132 
L 328.893587 182.35729 
L 330.28546 180.269479 
L 331.329366 179.573542 
L 343.160292 180.965416 
L 333.417176 179.573542 
L 345.596071 178.877605 
L 335.504987 177.485732 
L 337.244829 176.093858 
L 337.940766 173.658079 
L 338.984671 172.266205 
L 350.467629 173.658079 
L 352.55544 173.658079 
L 354.295282 171.570268 
L 344.204198 169.134489 
L 346.292008 169.482458 
L 347.683882 169.830426 
L 348.03185 168.786521 
L 360.558714 169.830426 
L 351.163566 168.438552 
L 351.859503 167.742616 
L 352.903408 169.482458 
L 353.599345 168.438552 
L 364.386367 167.046679 
L 364.386367 168.438552 
L 353.251377 168.090584 
L 353.251377 167.742616 
L 353.251377 168.438552 
L 353.599345 168.786521 
L 364.386367 170.874331 
L 365.77824 166.69871 
" style="fill:none;stroke:#9467bd;stroke-linecap:square;stroke-width:1.5;"/>
   </g>
   <g id="line2d_16">
    <path clip-path="url(#pd6f1166d60)" d="M 252.340532 244.991607 
L 252.6885 244.643639 
L 252.6885 244.643639 
L 253.036469 244.29567 
L 253.384437 243.947702 
L 253.732406 243.599733 
L 253.732406 243.251765 
L 253.384437 242.903797 
L 252.6885 242.20786 
L 253.036469 241.511923 
L 254.080374 240.468018 
L 255.820216 239.076144 
L 257.560058 238.032239 
L 258.603964 236.988333 
L 259.299901 235.59646 
L 259.995837 234.204586 
L 260.691774 232.812712 
L 261.73568 231.420838 
L 263.127553 230.028965 
L 264.519427 228.289122 
L 265.911301 226.897249 
L 267.999111 225.853343 
L 270.43489 224.46147 
L 272.870669 223.417564 
L 275.306448 222.373659 
L 277.046291 221.677722 
L 278.438164 220.633817 
L 279.134101 219.93788 
L 280.178006 218.893975 
L 280.873943 218.198038 
L 281.56988 217.502101 
L 282.265817 216.458196 
L 282.961754 215.762259 
L 284.005659 214.718354 
L 285.049564 213.674448 
L 285.397533 212.630543 
L 285.745501 211.238669 
L 285.397533 210.194764 
L 285.397533 209.150859 
L 285.397533 208.106954 
L 286.09347 207.063048 
L 287.137375 206.019143 
L 288.877217 205.323206 
L 290.617059 204.627269 
L 292.008933 204.627269 
L 293.052838 204.627269 
L 294.792681 204.975238 
L 296.532523 205.323206 
L 298.620333 204.975238 
L 300.360175 204.279301 
L 301.752049 203.583364 
L 302.795954 202.887427 
L 304.187828 202.19149 
L 306.275639 201.495553 
L 308.363449 200.799616 
L 310.45126 200.451648 
L 312.191102 200.10368 
L 312.887039 199.755711 
L 313.582976 199.407743 
L 314.278913 198.711806 
L 315.670786 198.015869 
L 317.758597 196.971964 
L 320.194376 195.58009 
L 322.282186 193.840248 
L 324.022029 192.448374 
L 325.413902 190.708532 
L 326.805776 188.96869 
L 328.545618 187.576816 
L 329.937492 185.836974 
L 331.329366 184.4451 
L 332.373271 183.053227 
L 333.417176 181.661353 
L 334.461082 180.965416 
L 336.200924 180.269479 
L 337.244829 179.225574 
L 337.940766 178.529637 
L 338.636703 177.137763 
L 339.33264 176.093858 
L 341.072482 175.049953 
L 343.160292 174.006047 
L 345.596071 173.31011 
L 347.683882 172.266205 
L 348.379819 171.570268 
L 348.727787 170.874331 
L 348.727787 170.178395 
L 349.423724 169.830426 
L 350.467629 169.482458 
L 351.859503 169.134489 
L 352.903408 169.134489 
L 353.599345 168.786521 
L 354.991219 168.786521 
L 356.383093 168.438552 
L 357.07903 168.438552 
L 357.426998 168.438552 
L 356.731061 168.438552 
L 356.383093 168.438552 
L 356.731061 168.786521 
L 358.122935 168.786521 
L 359.862777 168.786521 
L 361.254651 168.786521 
" style="fill:none;stroke:#8c564b;stroke-linecap:square;stroke-width:1.5;"/>
   </g>
   <g id="line2d_17">
    <path clip-path="url(#pd6f1166d60)" d="M 240.509605 243.251765 
L 252.340532 240.815986 
L 253.036469 239.772081 
L 255.124279 240.468018 
L 256.168185 238.728175 
L 257.560058 235.59646 
L 258.951932 244.991607 
L 259.995837 235.248491 
L 249.904753 243.251765 
L 261.73568 231.420838 
L 251.644595 240.468018 
L 264.171459 239.076144 
L 265.215364 238.032239 
L 266.259269 236.292396 
L 267.651143 234.204586 
L 257.560058 233.160681 
L 258.951932 230.724901 
L 260.343806 228.985059 
L 261.73568 230.028965 
L 263.127553 228.637091 
L 264.519427 226.201312 
L 265.563332 225.157407 
L 278.090196 225.157407 
L 279.134101 224.113501 
L 269.043017 221.329754 
L 281.221912 219.241943 
L 281.917849 218.893975 
L 272.870669 216.458196 
L 273.914575 214.022417 
L 274.95848 211.934606 
L 276.350354 210.542733 
L 277.742227 208.80289 
L 278.786133 206.367111 
L 280.178006 203.583364 
L 292.356901 201.843522 
L 293.748775 199.059774 
L 283.309722 196.971964 
L 295.140649 196.623995 
L 296.532523 194.884153 
L 286.441438 193.492279 
L 297.924396 193.144311 
L 287.485343 191.0565 
L 288.18128 189.664627 
L 299.664239 187.576816 
L 289.573154 185.141037 
L 289.921122 184.097132 
L 290.617059 183.401195 
L 302.100018 182.35729 
L 291.660965 179.225574 
L 292.70487 177.485732 
L 293.400807 176.441826 
L 305.579702 175.049953 
L 306.623607 172.614174 
L 296.532523 170.874331 
L 297.576428 169.482458 
L 298.968302 167.742616 
L 300.012207 166.350742 
L 301.056112 164.262931 
L 312.191102 163.914963 
L 302.100018 163.219026 
L 302.100018 163.566994 
L 302.795954 162.175121 
L 303.143923 158.695436 
L 303.491891 157.9995 
L 304.535797 158.347468 
L 305.579702 157.303563 
L 306.971576 153.823878 
L 308.363449 149.996226 
L 309.407355 149.648257 
L 309.755323 149.648257 
L 310.799228 147.560447 
L 310.799228 145.820605 
L 311.495165 145.472636 
L 312.191102 144.776699 
L 313.582976 141.992952 
L 314.974849 138.513267 
L 315.322818 138.513267 
L 316.714692 129.814057 
L 316.714692 136.425457 
L 328.19765 136.425457 
L 317.410628 135.381552 
L 317.758597 135.033583 
L 318.106565 132.945773 
L 318.802502 132.945773 
L 319.150471 133.293741 
L 319.846407 131.901867 
L 320.890313 130.162025 
L 321.238281 129.814057 
L 332.721239 130.857962 
L 321.934218 128.422183 
L 322.630155 127.030309 
L 322.630155 127.726246 
L 322.978123 128.422183 
L 334.113113 129.466088 
L 322.978123 127.378278 
L 334.461082 128.074215 
L 323.326092 127.378278 
L 323.67406 128.074215 
L 323.326092 128.074215 
L 323.326092 128.770151 
" style="fill:none;stroke:#e377c2;stroke-linecap:square;stroke-width:1.5;"/>
   </g>
   <g id="line2d_18">
    <path clip-path="url(#pd6f1166d60)" d="M 248.164911 241.511923 
L 249.556785 241.163954 
L 251.644595 240.468018 
L 253.732406 240.120049 
L 255.472248 239.772081 
L 256.516153 239.424112 
L 256.864122 239.424112 
L 256.864122 239.076144 
L 257.21209 238.728175 
L 257.908027 238.380207 
L 259.299901 238.032239 
L 260.691774 237.68427 
L 262.431616 236.988333 
L 262.779585 235.944428 
L 262.779585 234.552554 
L 262.083648 233.160681 
L 261.387711 231.768807 
L 261.387711 230.376933 
L 262.431616 229.333028 
L 264.171459 228.289122 
L 266.259269 226.897249 
L 269.043017 225.853343 
L 271.826764 224.46147 
L 273.914575 223.069596 
L 275.306448 221.677722 
L 276.350354 219.93788 
L 276.350354 218.198038 
L 276.002385 216.458196 
L 276.002385 214.370385 
L 276.002385 212.282575 
L 277.046291 210.542733 
L 278.438164 208.454922 
L 280.873943 206.367111 
L 283.657691 204.279301 
L 286.09347 201.843522 
L 288.529249 200.10368 
L 289.921122 198.363837 
L 290.965028 196.623995 
L 291.660965 195.232122 
L 291.660965 193.840248 
L 291.660965 192.448374 
L 291.660965 191.0565 
L 291.660965 189.316658 
L 292.008933 187.924785 
L 292.356901 186.184942 
L 292.70487 184.4451 
L 293.400807 183.053227 
L 294.096744 181.661353 
L 294.792681 179.921511 
L 295.836586 178.181669 
L 297.576428 176.441826 
L 298.968302 174.701984 
L 299.664239 172.962142 
L 300.012207 171.2223 
L 300.012207 169.830426 
L 300.360175 168.090584 
L 301.056112 166.69871 
L 302.447986 165.654805 
L 303.143923 164.6109 
L 303.491891 163.566994 
L 303.491891 162.523089 
L 303.491891 161.479184 
L 303.491891 160.08731 
L 303.83986 158.695436 
L 304.883765 157.303563 
L 305.579702 155.563721 
L 306.623607 153.823878 
L 307.667512 152.084036 
L 308.711418 150.692163 
L 309.407355 148.95232 
L 310.103291 147.908415 
L 310.799228 146.516541 
L 311.843134 145.124668 
L 312.53907 143.384825 
L 313.582976 141.644983 
L 314.626881 139.557173 
L 316.018755 137.817331 
L 317.06266 136.425457 
L 318.454534 135.72952 
L 319.150471 135.381552 
L 319.150471 135.033583 
L 319.150471 134.685615 
L 318.802502 133.989678 
L 319.150471 133.293741 
L 319.498439 132.597804 
L 320.542344 131.901867 
L 321.58625 131.20593 
L 322.978123 130.509994 
L 323.67406 129.814057 
L 324.022029 129.11812 
L 324.369997 128.770151 
L 324.717966 128.422183 
L 325.761871 128.422183 
L 326.457808 128.422183 
L 326.805776 128.422183 
L 326.457808 128.074215 
L 325.761871 128.074215 
L 324.717966 128.074215 
L 324.022029 128.422183 
L 323.67406 128.422183 
" style="fill:none;stroke:#7f7f7f;stroke-linecap:square;stroke-width:1.5;"/>
   </g>
   <g id="line2d_19">
    <path clip-path="url(#pd6f1166d60)" d="M 257.908027 227.593186 
L 258.603964 236.640365 
L 247.121006 228.289122 
L 258.255995 236.988333 
L 257.560058 229.333028 
L 246.0771 231.420838 
L 256.864122 230.724901 
L 256.864122 231.07287 
L 246.0771 231.07287 
L 256.864122 231.768807 
L 256.516153 233.856617 
L 256.516153 244.643639 
L 245.729132 240.815986 
L 257.21209 243.251765 
L 257.560058 244.991607 
L 245.729132 242.903797 
L 245.381163 241.859891 
L 256.864122 241.163954 
L 246.0771 240.120049 
L 246.0771 236.988333 
L 256.864122 235.59646 
L 257.560058 234.552554 
L 246.773037 231.420838 
L 247.121006 229.333028 
L 248.164911 228.289122 
L 259.299901 225.505375 
L 248.860848 231.07287 
L 249.208816 218.198038 
L 260.343806 216.110227 
L 249.904753 222.373659 
L 249.904753 219.589912 
L 249.904753 216.458196 
L 249.904753 212.282575 
L 249.904753 206.71508 
L 261.039743 204.627269 
L 250.252721 202.887427 
L 250.252721 199.059774 
L 260.691774 196.276027 
L 249.904753 196.623995 
L 260.691774 196.276027 
L 249.904753 195.928058 
L 249.904753 196.623995 
L 261.039743 196.276027 
L 260.691774 194.884153 
L 260.691774 192.796343 
L 249.556785 192.100406 
L 260.343806 192.100406 
L 260.343806 189.664627 
L 248.860848 185.836974 
L 248.860848 184.793069 
L 259.647869 184.097132 
L 259.647869 182.009321 
L 248.860848 178.181669 
L 249.208816 176.441826 
L 249.556785 175.049953 
L 249.904753 173.31011 
L 261.387711 171.570268 
L 250.252721 167.742616 
L 250.252721 164.262931 
L 250.252721 160.783247 
L 249.904753 159.739342 
L 250.252721 158.695436 
L 250.252721 158.347468 
L 250.252721 158.695436 
L 250.252721 157.9995 
L 249.904753 156.607626 
L 250.252721 155.911689 
L 250.252721 155.911689 
L 250.252721 155.215752 
L 250.252721 153.127942 
L 261.387711 152.779973 
L 250.60069 149.648257 
L 261.387711 148.256384 
L 261.387711 146.168573 
L 250.60069 143.732794 
L 250.60069 141.297015 
L 250.60069 136.773425 
L 250.60069 135.033583 
L 261.73568 133.989678 
L 250.60069 130.857962 
L 250.60069 129.11812 
L 250.252721 128.422183 
L 249.904753 127.726246 
L 250.252721 123.550625 
L 249.556785 129.11812 
L 250.60069 117.635162 
L 250.252721 116.243288 
L 250.60069 113.45954 
L 250.60069 109.631888 
L 262.083648 110.327825 
L 249.904753 116.243288 
L 251.296627 105.804235 
L 250.252721 113.45954 
L 251.296627 104.412361 
L 251.644595 105.456267 
L 250.252721 113.45954 
L 262.779585 104.76033 
L 251.644595 104.064393 
L 250.252721 113.45954 
L 250.252721 112.067667 
" style="fill:none;stroke:#bcbd22;stroke-linecap:square;stroke-width:1.5;"/>
   </g>
   <g id="line2d_20">
    <path clip-path="url(#pd6f1166d60)" d="M 255.820216 231.420838 
L 255.472248 231.768807 
L 254.776311 232.116775 
L 254.428343 232.116775 
L 253.732406 231.768807 
L 253.384437 231.768807 
L 253.384437 231.768807 
L 253.384437 232.116775 
L 253.384437 232.812712 
L 253.732406 234.552554 
L 253.732406 236.640365 
L 253.384437 239.076144 
L 253.036469 240.815986 
L 252.6885 242.20786 
L 251.644595 242.555828 
L 250.948658 242.555828 
L 250.252721 241.859891 
L 249.904753 240.468018 
L 250.252721 239.076144 
L 250.60069 237.68427 
L 250.948658 235.944428 
L 251.296627 233.856617 
L 250.948658 232.116775 
L 250.60069 230.376933 
L 250.948658 228.637091 
L 251.296627 226.54928 
L 251.992564 224.809438 
L 252.340532 222.721628 
L 251.992564 220.981785 
L 251.644595 219.241943 
L 251.296627 217.154133 
L 251.296627 214.718354 
L 251.644595 211.934606 
L 251.992564 208.80289 
L 253.036469 205.671175 
L 253.384437 202.887427 
L 253.732406 200.451648 
L 254.080374 198.711806 
L 254.428343 197.667901 
L 254.428343 196.971964 
L 254.776311 196.276027 
L 255.472248 195.928058 
L 256.168185 195.232122 
L 256.864122 194.536185 
L 257.21209 193.492279 
L 256.864122 192.100406 
L 256.168185 190.708532 
L 255.124279 188.96869 
L 254.776311 187.228848 
L 254.080374 185.141037 
L 254.080374 183.401195 
L 253.384437 181.313384 
L 252.6885 179.225574 
L 251.992564 177.137763 
L 251.644595 175.049953 
L 251.992564 172.614174 
L 251.992564 170.526363 
L 251.992564 167.742616 
L 251.296627 165.306837 
L 250.60069 162.871058 
L 250.252721 161.131215 
L 250.252721 159.739342 
L 249.904753 159.043405 
L 249.904753 158.347468 
L 249.904753 157.651531 
L 250.252721 156.955594 
L 250.252721 156.259657 
L 250.948658 155.563721 
L 251.992564 154.519815 
L 253.036469 153.127942 
L 254.428343 151.736068 
L 255.472248 149.996226 
L 255.820216 147.908415 
L 255.124279 145.820605 
L 254.080374 143.384825 
L 253.384437 140.949046 
L 252.6885 138.165299 
L 252.6885 136.077488 
L 252.6885 133.641709 
L 252.340532 131.901867 
L 251.644595 130.162025 
L 250.948658 128.422183 
L 250.252721 127.030309 
L 250.252721 124.942499 
L 250.252721 122.854688 
L 250.252721 120.070941 
L 250.948658 117.287193 
L 251.644595 114.851414 
L 252.340532 113.111572 
L 252.6885 112.067667 
L 252.340532 111.023761 
L 251.992564 110.327825 
L 251.644595 109.283919 
L 251.644595 108.587982 
L 252.340532 108.240014 
L 253.036469 108.240014 
L 253.036469 108.587982 
L 252.6885 108.935951 
L 251.992564 109.979856 
L 251.644595 110.327825 
" style="fill:none;stroke:#17becf;stroke-linecap:square;stroke-width:1.5;"/>
   </g>
   <g id="line2d_21">
    <path clip-path="url(#pd6f1166d60)" d="M 231.462426 239.076144 
L 218.935563 240.468018 
L 231.810395 239.424112 
L 231.810395 238.728175 
L 219.979468 240.468018 
L 230.766489 240.815986 
L 219.979468 239.772081 
L 219.6315 239.424112 
L 230.418521 239.424112 
L 218.239626 238.380207 
L 229.722584 235.59646 
L 228.33071 244.991607 
L 226.938837 235.59646 
L 225.198994 234.204586 
L 224.503058 231.768807 
L 222.415247 227.941154 
L 221.023373 225.853343 
L 218.935563 233.856617 
L 217.891657 228.985059 
L 217.543689 223.765533 
L 215.10791 212.630543 
L 214.064005 222.025691 
L 213.020099 210.194764 
L 212.324163 207.758985 
L 211.976194 216.806164 
L 209.888384 216.458196 
L 208.148541 203.583364 
L 197.013552 210.194764 
L 196.665583 208.106954 
L 196.665583 208.454922 
L 195.273709 209.498827 
L 206.408699 196.276027 
L 206.408699 203.583364 
L 205.712762 202.887427 
L 203.624952 192.100406 
L 203.276983 190.012595 
L 191.098088 198.363837 
L 190.402151 197.319932 
L 191.098088 197.319932 
L 201.88511 195.928058 
L 200.841204 184.097132 
L 201.537141 191.404469 
L 200.841204 189.664627 
L 199.797299 188.620721 
L 199.797299 185.141037 
L 199.797299 182.705258 
L 197.013552 171.2223 
L 195.969646 169.830426 
L 197.013552 176.441826 
L 184.13872 177.485732 
L 194.577773 165.654805 
L 194.229804 166.002773 
L 193.881836 166.002773 
L 193.185899 165.306837 
L 192.141994 162.523089 
L 191.794025 160.08731 
L 191.098088 157.651531 
L 190.402151 155.911689 
L 189.358246 154.171847 
L 188.662309 153.127942 
L 186.574499 151.388099 
L 186.22653 149.300289 
L 185.182625 146.168573 
L 184.486688 144.428731 
L 183.094814 141.297015 
L 182.398878 138.861236 
L 181.702941 137.121394 
L 180.311067 136.425457 
L 179.963099 135.381552 
L 181.007004 143.732794 
L 180.311067 143.732794 
L 179.267162 134.337646 
L 179.61513 134.337646 
L 179.267162 132.597804 
L 178.919193 131.901867 
L 178.919193 130.162025 
L 178.919193 128.770151 
L 168.132172 139.209204 
L 178.571225 125.638436 
L 166.39233 127.030309 
L 177.179351 123.898593 
L 176.831383 122.50672 
L 176.831383 120.418909 
L 176.483414 120.070941 
L 175.787477 120.418909 
L 174.743572 120.070941 
L 162.564677 121.462814 
L 174.743572 117.635162 
L 175.439509 128.422183 
L 173.699667 119.027035 
L 174.395604 118.679067 
L 174.743572 117.287193 
L 175.09154 117.98313 
L 174.395604 119.027035 
L 162.912645 122.158751 
L 174.743572 119.375004 
L 162.912645 121.462814 
L 174.743572 118.679067 
L 175.09154 117.98313 
L 163.260614 120.766878 
" style="fill:none;stroke:#1f77b4;stroke-linecap:square;stroke-width:1.5;"/>
   </g>
   <g id="line2d_22">
    <path clip-path="url(#pd6f1166d60)" d="M 227.286805 239.772081 
L 227.286805 239.772081 
L 226.938837 239.772081 
L 226.590868 239.772081 
L 225.894931 240.120049 
L 224.851026 240.120049 
L 224.155089 239.772081 
L 224.155089 239.772081 
L 224.155089 239.424112 
L 224.851026 239.076144 
L 225.546963 238.380207 
L 225.894931 237.68427 
L 225.546963 236.292396 
L 224.851026 234.204586 
L 223.807121 232.464744 
L 222.415247 230.724901 
L 220.675405 229.333028 
L 219.283531 227.941154 
L 217.891657 225.505375 
L 216.847752 222.721628 
L 215.455878 219.93788 
L 214.064005 217.154133 
L 213.020099 215.066322 
L 211.628226 213.674448 
L 209.888384 212.630543 
L 207.452605 211.586638 
L 204.668857 210.542733 
L 202.233078 209.150859 
L 200.145267 208.106954 
L 199.797299 206.71508 
L 200.493236 204.975238 
L 201.88511 203.235395 
L 202.581046 201.147585 
L 202.581046 199.059774 
L 201.189173 197.319932 
L 199.101362 196.276027 
L 197.013552 195.928058 
L 195.969646 195.232122 
L 196.317615 194.536185 
L 197.36152 193.144311 
L 198.753394 191.404469 
L 199.797299 190.012595 
L 199.797299 188.272753 
L 199.797299 186.184942 
L 199.101362 183.401195 
L 198.057457 180.269479 
L 197.013552 177.485732 
L 195.273709 175.049953 
L 194.229804 173.31011 
L 193.185899 171.570268 
L 192.83793 169.830426 
L 192.83793 167.742616 
L 192.83793 166.002773 
L 192.489962 164.262931 
L 192.141994 162.175121 
L 191.446057 160.435279 
L 190.75012 158.347468 
L 190.054183 156.607626 
L 189.010278 154.519815 
L 187.966372 152.779973 
L 186.922467 151.040131 
L 185.878562 148.95232 
L 185.182625 146.516541 
L 184.13872 144.428731 
L 183.094814 141.992952 
L 182.398878 140.25311 
L 181.702941 139.209204 
L 181.007004 138.861236 
L 180.659035 138.861236 
L 180.311067 138.861236 
L 179.963099 138.165299 
L 179.61513 136.773425 
L 179.267162 135.381552 
L 178.919193 133.641709 
L 178.223256 132.597804 
L 177.179351 131.901867 
L 176.135446 131.20593 
L 174.743572 130.162025 
L 174.047635 128.770151 
L 174.047635 127.030309 
L 174.395604 124.942499 
L 175.09154 123.202657 
L 175.439509 122.158751 
L 174.743572 121.114846 
L 174.047635 120.766878 
L 173.00373 120.766878 
L 172.307793 121.114846 
L 172.655761 121.114846 
L 173.00373 121.114846 
L 173.699667 120.418909 
L 173.699667 120.070941 
L 173.351698 119.375004 
L 172.655761 119.375004 
L 171.611856 119.722972 
L 170.567951 120.070941 
L 169.872014 120.070941 
L 169.872014 120.070941 
L 169.524046 120.070941 
L 169.524046 119.722972 
L 169.176077 119.722972 
" style="fill:none;stroke:#ff7f0e;stroke-linecap:square;stroke-width:1.5;"/>
   </g>
   <g id="line2d_23">
    <path clip-path="url(#pd6f1166d60)" d="M 251.992564 243.599733 
L 251.644595 244.643639 
L 250.948658 244.991607 
L 238.421795 242.903797 
L 249.208816 241.511923 
L 246.773037 239.424112 
L 233.898205 238.380207 
L 243.641321 237.68427 
L 241.901479 236.292396 
L 240.509605 234.900523 
L 238.421795 233.508649 
L 237.37789 232.464744 
L 223.807121 241.511923 
L 233.898205 238.728175 
L 232.8543 226.897249 
L 230.418521 226.201312 
L 229.374616 225.157407 
L 216.151815 223.765533 
L 226.938837 221.329754 
L 225.894931 229.680996 
L 224.851026 227.941154 
L 224.155089 226.897249 
L 224.155089 215.414291 
L 222.763215 224.46147 
L 210.932289 213.674448 
L 221.71931 213.32648 
L 208.49651 213.674448 
L 207.452605 213.32648 
L 217.195721 221.677722 
L 216.499784 219.589912 
L 214.759942 207.063048 
L 213.020099 206.367111 
L 211.976194 216.806164 
L 199.101362 206.367111 
L 198.405425 205.323206 
L 197.013552 204.975238 
L 207.452605 214.370385 
L 206.060731 212.978512 
L 193.533867 200.10368 
L 205.016825 207.063048 
L 203.276983 207.758985 
L 201.537141 198.711806 
L 200.493236 198.711806 
L 188.314341 198.015869 
L 199.101362 205.671175 
L 185.878562 204.627269 
L 197.013552 202.19149 
L 196.665583 201.495553 
L 184.13872 191.0565 
L 194.229804 200.451648 
L 193.533867 189.316658 
L 192.141994 197.667901 
L 191.098088 195.232122 
L 190.054183 193.492279 
L 187.966372 192.448374 
L 185.878562 191.0565 
L 185.182625 189.664627 
L 183.790751 187.576816 
L 182.746846 186.184942 
L 182.050909 184.793069 
L 181.007004 184.097132 
L 178.919193 183.401195 
L 178.919193 182.009321 
L 178.223256 180.617448 
L 176.483414 179.225574 
L 175.787477 168.090584 
L 173.351698 176.441826 
L 171.611856 162.871058 
L 170.915919 161.131215 
L 168.828109 169.830426 
L 167.436235 169.830426 
L 153.169529 159.391373 
L 162.912645 166.69871 
L 148.993908 166.350742 
L 159.432961 163.566994 
L 145.166255 163.914963 
L 155.25734 162.175121 
L 153.517498 160.783247 
L 152.473593 158.695436 
L 151.429687 156.955594 
L 149.689845 155.563721 
L 147.950003 154.519815 
L 145.166255 141.992952 
L 144.12235 149.300289 
L 143.774382 147.560447 
L 141.686571 146.516541 
L 139.598761 136.077488 
L 138.902824 144.428731 
L 126.723929 143.036857 
L 138.902824 140.949046 
L 125.680023 132.945773 
L 123.592213 145.820605 
L 123.592213 146.516541 
L 136.815013 144.080762 
L 137.162982 143.732794 
L 137.162982 145.124668 
L 136.815013 136.425457 
L 137.162982 146.168573 
L 137.858918 144.776699 
L 138.554855 145.124668 
" style="fill:none;stroke:#2ca02c;stroke-linecap:square;stroke-width:1.5;"/>
   </g>
   <g id="line2d_24">
    <path clip-path="url(#pd6f1166d60)" d="M 249.904753 244.29567 
L 249.208816 243.947702 
L 247.816942 243.251765 
L 246.0771 242.555828 
L 244.685227 241.511923 
L 243.293353 240.120049 
L 241.901479 238.728175 
L 241.205542 237.68427 
L 240.161637 236.640365 
L 238.769763 235.944428 
L 236.681953 235.59646 
L 234.94211 235.248491 
L 232.8543 234.552554 
L 231.462426 233.160681 
L 230.070552 230.724901 
L 228.678679 228.637091 
L 226.938837 226.897249 
L 225.546963 225.853343 
L 224.851026 225.505375 
L 224.503058 225.505375 
L 223.807121 224.809438 
L 223.111184 223.417564 
L 221.71931 221.677722 
L 219.6315 219.241943 
L 217.543689 217.502101 
L 215.455878 216.110227 
L 214.064005 215.762259 
L 213.368068 215.414291 
L 213.368068 215.066322 
L 213.368068 214.370385 
L 212.324163 212.978512 
L 210.236352 211.238669 
L 207.452605 210.194764 
L 205.016825 209.150859 
L 202.929015 208.80289 
L 201.88511 208.454922 
L 201.88511 208.454922 
L 201.537141 207.758985 
L 201.537141 206.71508 
L 201.189173 205.323206 
L 200.493236 203.931332 
L 199.449331 202.539459 
L 197.709488 201.843522 
L 195.621678 201.843522 
L 194.229804 201.843522 
L 193.185899 201.843522 
L 192.83793 200.799616 
L 192.489962 199.407743 
L 192.141994 197.667901 
L 191.794025 196.276027 
L 191.446057 195.58009 
L 191.098088 194.884153 
L 190.402151 194.188216 
L 189.010278 193.492279 
L 187.966372 192.448374 
L 186.574499 191.0565 
L 185.182625 189.664627 
L 183.790751 188.272753 
L 182.746846 186.880879 
L 181.702941 185.489006 
L 180.659035 184.097132 
L 179.61513 182.705258 
L 178.571225 181.313384 
L 177.527319 179.225574 
L 176.135446 176.441826 
L 174.743572 173.658079 
L 173.351698 170.874331 
L 171.611856 168.786521 
L 169.176077 167.394647 
L 166.740298 166.350742 
L 163.608582 166.002773 
L 160.824835 165.654805 
L 158.041087 165.306837 
L 155.605308 164.6109 
L 154.213435 163.914963 
L 153.169529 163.219026 
L 152.473593 161.827152 
L 152.125624 160.435279 
L 151.429687 158.695436 
L 150.385782 156.607626 
L 148.993908 154.519815 
L 147.602034 152.084036 
L 145.862192 149.648257 
L 144.12235 147.908415 
L 142.730476 146.168573 
L 140.642666 144.776699 
L 138.554855 143.384825 
L 136.119076 142.34092 
L 133.683297 141.644983 
L 131.595487 141.644983 
L 129.855645 141.644983 
L 129.507676 142.34092 
L 130.203613 143.384825 
L 131.943455 143.732794 
L 134.031266 143.732794 
L 135.771108 143.384825 
L 136.467045 143.384825 
L 137.162982 143.732794 
L 137.51095 144.080762 
L 137.51095 144.428731 
" style="fill:none;stroke:#d62728;stroke-linecap:square;stroke-width:1.5;"/>
   </g>
   <g id="line2d_25">
    <path clip-path="url(#pd6f1166d60)" d="M 245.033195 244.991607 
L 243.293353 243.599733 
L 241.553511 243.947702 
L 240.161637 243.599733 
L 238.421795 242.903797 
L 238.073826 232.116775 
L 223.807121 241.163954 
L 234.246174 240.468018 
L 220.327436 240.120049 
L 230.418521 239.424112 
L 228.678679 238.728175 
L 226.938837 238.380207 
L 212.672131 238.728175 
L 222.415247 239.772081 
L 221.023373 239.076144 
L 219.283531 238.380207 
L 205.364794 237.68427 
L 215.455878 239.076144 
L 214.411973 228.637091 
L 211.628226 238.380207 
L 197.709488 236.640365 
L 207.800573 236.292396 
L 193.185899 235.944428 
L 203.624952 235.248491 
L 201.88511 233.508649 
L 199.101362 232.812712 
L 197.013552 232.812712 
L 195.621678 232.812712 
L 182.746846 222.025691 
L 192.83793 231.768807 
L 192.489962 220.285849 
L 191.098088 219.93788 
L 189.706215 219.93788 
L 188.314341 220.285849 
L 186.574499 231.07287 
L 184.834657 231.07287 
L 183.790751 220.633817 
L 169.176077 231.420838 
L 179.963099 231.07287 
L 178.223256 231.07287 
L 176.831383 231.07287 
L 175.439509 231.07287 
L 173.699667 230.376933 
L 172.655761 230.376933 
L 170.567951 230.376933 
L 169.176077 230.724901 
L 168.132172 230.376933 
L 167.784203 230.028965 
L 166.044361 230.028965 
L 165.000456 230.376933 
L 151.777656 219.589912 
L 160.824835 228.289122 
L 158.737024 227.593186 
L 155.953277 227.593186 
L 153.517498 227.245217 
L 152.125624 226.201312 
L 149.689845 226.201312 
L 135.771108 216.110227 
L 145.514224 225.157407 
L 144.12235 224.113501 
L 142.03454 224.113501 
L 139.598761 224.113501 
L 137.51095 223.069596 
L 135.075171 222.025691 
L 132.291424 221.677722 
L 129.855645 220.981785 
L 128.811739 209.846796 
L 126.37596 219.93788 
L 125.680023 218.198038 
L 111.761286 218.198038 
L 122.896276 217.502101 
L 122.200339 217.85007 
L 108.977539 218.893975 
L 120.460497 216.806164 
L 119.76456 216.110227 
L 118.024718 215.762259 
L 116.632844 215.762259 
L 103.062075 216.110227 
L 113.849097 214.022417 
L 112.109255 214.022417 
L 109.673476 214.370385 
L 107.585665 213.32648 
L 94.014896 212.282575 
L 94.362865 200.799616 
L 103.758012 211.586638 
L 101.322233 211.934606 
L 100.278328 210.890701 
L 87.055528 209.498827 
L 98.190517 209.150859 
L 96.102707 209.498827 
L 81.836001 209.846796 
L 93.318959 208.80289 
L 92.275054 208.106954 
L 90.88318 208.80289 
L 90.187243 209.498827 
L 77.312412 210.194764 
L 77.312412 209.150859 
L 89.491307 209.150859 
L 87.751464 209.498827 
L 73.832727 209.498827 
" style="fill:none;stroke:#9467bd;stroke-linecap:square;stroke-width:1.5;"/>
   </g>
   <g id="line2d_26">
    <path clip-path="url(#pd6f1166d60)" d="M 242.945384 244.29567 
L 242.249448 243.947702 
L 240.857574 243.251765 
L 239.117732 242.20786 
L 236.681953 241.163954 
L 234.246174 240.120049 
L 231.810395 239.772081 
L 229.374616 239.772081 
L 227.982742 239.772081 
L 226.590868 239.424112 
L 225.198994 239.424112 
L 223.459152 239.076144 
L 221.371342 239.076144 
L 219.6315 239.076144 
L 217.891657 238.728175 
L 216.151815 238.032239 
L 214.064005 237.336302 
L 212.324163 236.640365 
L 210.236352 236.292396 
L 207.800573 235.944428 
L 205.364794 235.944428 
L 203.276983 235.944428 
L 201.537141 235.59646 
L 200.493236 234.900523 
L 199.101362 233.856617 
L 197.709488 232.812712 
L 195.621678 231.420838 
L 193.881836 229.680996 
L 192.141994 227.941154 
L 191.098088 225.853343 
L 190.402151 224.113501 
L 189.706215 223.417564 
L 189.010278 223.417564 
L 187.618404 224.46147 
L 185.530593 225.853343 
L 183.442783 226.897249 
L 181.007004 227.941154 
L 178.919193 228.985059 
L 177.875288 230.028965 
L 176.831383 230.376933 
L 175.787477 230.724901 
L 174.743572 230.724901 
L 173.699667 230.724901 
L 172.307793 230.724901 
L 170.915919 230.724901 
L 169.524046 230.376933 
L 167.784203 230.028965 
L 166.39233 229.680996 
L 164.304519 228.985059 
L 162.216709 227.941154 
L 160.128898 227.245217 
L 158.389056 226.897249 
L 156.649214 226.897249 
L 154.909372 226.897249 
L 152.821561 226.201312 
L 150.037814 225.505375 
L 147.602034 224.46147 
L 145.166255 223.765533 
L 143.426413 223.417564 
L 142.03454 223.417564 
L 140.642666 223.417564 
L 138.902824 223.417564 
L 136.815013 222.721628 
L 134.727203 221.677722 
L 132.639392 220.633817 
L 130.203613 219.241943 
L 127.767834 218.198038 
L 125.332055 217.85007 
L 122.896276 217.85007 
L 121.156434 217.85007 
L 119.416592 217.85007 
L 118.372686 217.85007 
L 117.676749 217.502101 
L 117.328781 217.154133 
L 116.632844 216.806164 
L 115.588939 216.110227 
L 113.849097 215.762259 
L 112.109255 215.414291 
L 110.717381 214.718354 
L 108.977539 214.022417 
L 106.889728 213.32648 
L 104.105981 211.934606 
L 101.670202 210.890701 
L 100.278328 210.194764 
L 98.886454 209.846796 
L 98.190517 210.194764 
L 96.798644 210.194764 
L 95.40677 210.194764 
L 93.666928 209.846796 
L 92.275054 209.498827 
L 91.231149 209.498827 
L 90.535212 209.150859 
L 89.491307 209.150859 
L 88.099433 209.150859 
L 86.359591 209.498827 
L 84.619749 209.498827 
L 83.227875 209.498827 
L 82.531938 209.498827 
L 81.836001 209.498827 
L 81.488033 209.498827 
" style="fill:none;stroke:#8c564b;stroke-linecap:square;stroke-width:1.5;"/>
   </g>
   <g id="line2d_27">
    <path clip-path="url(#pd6f1166d60)" d="M 251.644595 242.903797 
L 261.73568 244.991607 
L 247.816942 237.68427 
L 260.343806 234.204586 
L 260.343806 241.859891 
L 257.908027 234.204586 
L 243.98929 236.640365 
L 254.428343 232.464744 
L 250.252721 231.07287 
L 232.8543 233.856617 
L 241.205542 241.511923 
L 237.37789 230.028965 
L 234.246174 231.07287 
L 231.114458 231.768807 
L 229.374616 231.07287 
L 227.982742 240.120049 
L 225.894931 231.07287 
L 224.503058 232.464744 
L 212.324163 231.768807 
L 211.280257 231.07287 
L 220.675405 231.420838 
L 207.452605 232.812712 
L 217.891657 231.07287 
L 204.320889 233.160681 
L 202.233078 233.160681 
L 213.020099 231.768807 
L 199.449331 234.552554 
L 198.057457 235.248491 
L 196.665583 235.248491 
L 207.452605 233.160681 
L 206.060731 232.812712 
L 205.016825 233.508649 
L 192.489962 234.900523 
L 204.320889 231.768807 
L 202.581046 232.812712 
L 200.841204 233.508649 
L 187.966372 233.856617 
L 197.36152 233.508649 
L 183.790751 235.59646 
L 194.229804 233.508649 
L 180.311067 235.248491 
L 191.098088 233.160681 
L 189.706215 232.464744 
L 187.618404 232.464744 
L 185.878562 232.116775 
L 183.790751 232.116775 
L 181.702941 232.116775 
L 179.267162 232.116775 
L 177.179351 231.420838 
L 174.395604 230.724901 
L 171.959825 230.028965 
L 169.176077 230.376933 
L 166.740298 230.724901 
L 164.652488 229.333028 
L 162.564677 228.985059 
L 160.128898 230.028965 
L 158.389056 230.028965 
L 156.997182 228.289122 
L 142.730476 230.376933 
L 152.473593 230.028965 
L 150.385782 228.637091 
L 137.162982 230.376933 
L 146.558129 231.07287 
L 146.210161 231.420838 
L 146.210161 230.376933 
L 145.166255 231.420838 
L 144.12235 232.464744 
L 131.595487 233.508649 
L 142.730476 241.859891 
L 141.338603 232.116775 
L 139.946729 233.160681 
L 139.250792 232.116775 
L 137.51095 241.511923 
L 135.771108 241.163954 
L 132.639392 241.163954 
L 130.203613 229.680996 
L 127.419866 230.028965 
L 124.636118 230.028965 
L 121.852371 238.728175 
L 119.416592 238.032239 
L 116.632844 229.333028 
L 103.410044 230.376933 
L 115.24097 237.68427 
L 113.15316 227.593186 
L 99.234423 239.772081 
L 97.494581 227.941154 
L 94.710833 227.941154 
L 104.801918 227.245217 
L 103.062075 226.897249 
L 100.626296 237.336302 
L 97.146612 228.289122 
L 95.754738 228.637091 
L 82.531938 240.815986 
L 94.362865 228.637091 
L 81.836001 240.815986 
L 82.18397 230.028965 
L 82.531938 230.376933 
L 94.710833 238.728175 
L 82.18397 240.120049 
L 82.531938 229.680996 
" style="fill:none;stroke:#e377c2;stroke-linecap:square;stroke-width:1.5;"/>
   </g>
   <g id="line2d_28">
    <path clip-path="url(#pd6f1166d60)" d="M 254.776311 241.859891 
L 255.124279 241.163954 
L 255.472248 239.772081 
L 255.820216 238.728175 
L 255.124279 237.336302 
L 253.732406 236.292396 
L 251.296627 235.59646 
L 248.512879 234.900523 
L 245.381163 234.552554 
L 242.249448 234.204586 
L 239.117732 234.204586 
L 236.681953 233.508649 
L 234.246174 233.160681 
L 231.810395 233.160681 
L 229.374616 233.160681 
L 226.938837 233.508649 
L 224.155089 233.160681 
L 221.023373 232.812712 
L 218.239626 232.464744 
L 215.803847 232.116775 
L 214.064005 232.116775 
L 212.324163 232.116775 
L 210.236352 232.464744 
L 208.49651 232.812712 
L 206.408699 233.160681 
L 204.668857 233.508649 
L 202.929015 233.856617 
L 202.233078 234.204586 
L 201.88511 234.204586 
L 202.233078 234.204586 
L 202.233078 233.856617 
L 201.88511 233.508649 
L 201.189173 233.508649 
L 200.145267 233.508649 
L 198.753394 233.508649 
L 197.013552 233.508649 
L 194.577773 233.856617 
L 192.489962 234.204586 
L 190.402151 234.204586 
L 189.010278 234.204586 
L 188.314341 233.856617 
L 187.618404 233.508649 
L 187.270436 233.160681 
L 186.574499 232.812712 
L 185.182625 232.464744 
L 183.442783 232.464744 
L 181.354972 232.116775 
L 178.919193 231.768807 
L 176.483414 231.420838 
L 174.047635 231.07287 
L 171.611856 230.724901 
L 169.176077 230.376933 
L 166.740298 230.376933 
L 164.652488 230.028965 
L 162.216709 230.028965 
L 159.432961 229.680996 
L 156.997182 229.680996 
L 153.865466 229.680996 
L 151.429687 229.680996 
L 148.993908 230.028965 
L 147.254066 230.028965 
L 145.862192 230.376933 
L 145.166255 230.724901 
L 144.818287 231.07287 
L 144.12235 231.768807 
L 143.078445 232.464744 
L 141.686571 233.508649 
L 140.642666 234.204586 
L 139.946729 234.900523 
L 139.598761 235.248491 
L 138.902824 235.59646 
L 137.858918 236.292396 
L 136.467045 236.988333 
L 134.727203 236.988333 
L 132.291424 236.292396 
L 129.855645 234.900523 
L 127.071897 234.204586 
L 124.28815 233.856617 
L 121.156434 233.856617 
L 118.024718 233.856617 
L 115.24097 233.508649 
L 112.457223 233.160681 
L 109.673476 233.160681 
L 106.889728 232.464744 
L 104.105981 231.768807 
L 102.01817 231.07287 
L 100.626296 230.376933 
L 100.278328 230.028965 
L 99.582391 230.376933 
L 98.190517 231.07287 
L 96.102707 231.768807 
L 93.318959 232.812712 
L 90.535212 233.508649 
L 88.099433 233.856617 
L 86.359591 234.204586 
L 85.663654 234.204586 
L 85.315685 234.552554 
L 84.967717 234.900523 
L 84.967717 234.900523 
L 84.619749 234.900523 
" style="fill:none;stroke:#7f7f7f;stroke-linecap:square;stroke-width:1.5;"/>
   </g>
   <g id="patch_3">
    <path d="M 57.6 252.037968 
L 57.6 97.018032 
" style="fill:none;stroke:#000000;stroke-linecap:square;stroke-linejoin:miter;stroke-width:0.8;"/>
   </g>
   <g id="patch_4">
    <path d="M 414.72 252.037968 
L 414.72 97.018032 
" style="fill:none;stroke:#000000;stroke-linecap:square;stroke-linejoin:miter;stroke-width:0.8;"/>
   </g>
   <g id="patch_5">
    <path d="M 57.6 252.037968 
L 414.72 252.037968 
" style="fill:none;stroke:#000000;stroke-linecap:square;stroke-linejoin:miter;stroke-width:0.8;"/>
   </g>
   <g id="patch_6">
    <path d="M 57.6 97.018032 
L 414.72 97.018032 
" style="fill:none;stroke:#000000;stroke-linecap:square;stroke-linejoin:miter;stroke-width:0.8;"/>
   </g>
  </g>
 </g>
 <defs>
  <clipPath id="pd6f1166d60">
   <rect height="155.019936" width="357.12" x="57.6" y="97.018032"/>
  </clipPath>
 </defs>
</svg>
